<?xml version="1.0" encoding="iso-8859-1"?>
<!-- Generator: Adobe Illustrator 19.0.0, SVG Export Plug-In . SVG Version: 6.00 Build 0)  -->
<svg version="1.1" id="Capa_1" xmlns="http://www.w3.org/2000/svg" xmlns:xlink="http://www.w3.org/1999/xlink" x="0px" y="0px"
	 viewBox="0 0 512 512" style="enable-background:new 0 0 512 512;" xml:space="preserve">
<g>
	<rect x="256" style="fill:#F6AB27;" width="256" height="256"/>
	<g>
		<polygon style="fill:#EC9130;" points="323.368,67.368 323.368,188.632 256,256 256,0 		"/>
		<polygon style="fill:#EC9130;" points="512,0 512,256 444.632,188.632 444.632,67.368 		"/>
	</g>
	<rect x="323.368" y="67.368" style="fill:#FCCC88;" width="121.263" height="121.263"/>
	<rect y="256" style="fill:#5496CE;" width="256" height="256"/>
	<g>
		<polygon style="fill:#336A93;" points="67.368,323.368 67.368,444.632 0,512 0,256 		"/>
		<polygon style="fill:#336A93;" points="256,256 256,512 188.632,444.632 188.632,323.368 		"/>
	</g>
	<rect x="67.368" y="323.368" style="fill:#36B6D6;" width="121.263" height="121.263"/>
	<rect x="256" y="256" style="fill:#FF6C77;" width="256" height="256"/>
	<g>
		<polygon style="fill:#ED634C;" points="512,256 512,512 444.632,444.632 444.632,323.368 		"/>
		<polygon style="fill:#ED634C;" points="323.368,323.368 323.368,444.632 256,512 256,256 		"/>
	</g>
	<rect x="323.368" y="323.368" style="fill:#FE9189;" width="121.263" height="121.263"/>
	<rect style="fill:#5DC382;" width="256" height="256"/>
	<g>
		<polygon style="fill:#23B972;" points="67.368,67.368 67.368,188.632 0,256 0,0 		"/>
		<polygon style="fill:#23B972;" points="256,0 256,256 188.632,188.632 188.632,67.368 		"/>
	</g>
	<rect x="67.368" y="67.368" style="fill:#8ED7AE;" width="121.263" height="121.263"/>
</g>
<g>
</g>
<g>
</g>
<g>
</g>
<g>
</g>
<g>
</g>
<g>
</g>
<g>
</g>
<g>
</g>
<g>
</g>
<g>
</g>
<g>
</g>
<g>
</g>
<g>
</g>
<g>
</g>
<g>
</g>
</svg>
